<mxfile host="app.diagrams.net" modified="2021-07-08T23:52:33.609Z" agent="5.0 (Windows NT 10.0; Win64; x64) AppleWebKit/537.36 (KHTML, like Gecko) Chrome/91.0.4472.124 Safari/537.36" etag="LfkcBGZ9zFPX7iDyGZqn" version="14.7.0" type="github">
  <diagram id="vzJxiw3lpOjPulL7UVYe" name="Page-1">
    <mxGraphModel dx="1405" dy="725" grid="1" gridSize="10" guides="1" tooltips="1" connect="1" arrows="1" fold="1" page="1" pageScale="1" pageWidth="1100" pageHeight="850" math="0" shadow="0">
      <root>
        <mxCell id="0" />
        <mxCell id="1" parent="0" />
        <mxCell id="Q-lT2aA6olfQfRU4r2ev-2" value="" style="rounded=0;whiteSpace=wrap;html=1;fillColor=none;dashed=1;strokeWidth=2;" vertex="1" parent="1">
          <mxGeometry x="160" y="130" width="880" height="550" as="geometry" />
        </mxCell>
        <mxCell id="Q-lT2aA6olfQfRU4r2ev-17" value="" style="rounded=0;whiteSpace=wrap;html=1;dashed=1;fillColor=none;strokeWidth=2;" vertex="1" parent="1">
          <mxGeometry x="200" y="284" width="820" height="336" as="geometry" />
        </mxCell>
        <mxCell id="Q-lT2aA6olfQfRU4r2ev-3" value="" style="edgeStyle=orthogonalEdgeStyle;rounded=0;orthogonalLoop=1;jettySize=auto;html=1;strokeWidth=2;" edge="1" parent="1" source="Q-lT2aA6olfQfRU4r2ev-1" target="Q-lT2aA6olfQfRU4r2ev-2">
          <mxGeometry relative="1" as="geometry" />
        </mxCell>
        <mxCell id="Q-lT2aA6olfQfRU4r2ev-1" value="Internet&lt;br&gt;" style="aspect=fixed;perimeter=ellipsePerimeter;html=1;align=center;shadow=0;dashed=0;spacingTop=3;image;image=img/lib/active_directory/internet_cloud.svg;" vertex="1" parent="1">
          <mxGeometry x="545" y="20" width="110" height="69.3" as="geometry" />
        </mxCell>
        <mxCell id="Q-lT2aA6olfQfRU4r2ev-4" value="&lt;b&gt;Azure VM: Red vs Blue&amp;nbsp;&lt;/b&gt;" style="text;html=1;align=center;verticalAlign=middle;resizable=0;points=[];autosize=1;strokeColor=none;" vertex="1" parent="1">
          <mxGeometry x="160" y="130" width="150" height="20" as="geometry" />
        </mxCell>
        <mxCell id="Q-lT2aA6olfQfRU4r2ev-13" style="edgeStyle=orthogonalEdgeStyle;rounded=0;orthogonalLoop=1;jettySize=auto;html=1;strokeWidth=2;" edge="1" parent="1" source="Q-lT2aA6olfQfRU4r2ev-7" target="Q-lT2aA6olfQfRU4r2ev-8">
          <mxGeometry relative="1" as="geometry" />
        </mxCell>
        <mxCell id="Q-lT2aA6olfQfRU4r2ev-8" value="Kali&lt;br&gt;OS: Linux&lt;br&gt;192.168.1.90&lt;br&gt;(attacker machine)" style="aspect=fixed;html=1;points=[];align=center;image;fontSize=12;image=img/lib/azure2/compute/Virtual_Machine.svg;" vertex="1" parent="1">
          <mxGeometry x="270" y="425" width="118.59" height="110" as="geometry" />
        </mxCell>
        <mxCell id="Q-lT2aA6olfQfRU4r2ev-11" value="ELK&lt;br&gt;OS: Linux&lt;br&gt;192.168.1.100&lt;br&gt;(monitoring)" style="aspect=fixed;html=1;points=[];align=center;image;fontSize=12;image=img/lib/azure2/compute/Virtual_Machine.svg;" vertex="1" parent="1">
          <mxGeometry x="544.7000000000002" y="420" width="118.59" height="110" as="geometry" />
        </mxCell>
        <mxCell id="Q-lT2aA6olfQfRU4r2ev-16" style="edgeStyle=orthogonalEdgeStyle;rounded=0;orthogonalLoop=1;jettySize=auto;html=1;strokeWidth=2;" edge="1" parent="1" source="Q-lT2aA6olfQfRU4r2ev-12">
          <mxGeometry relative="1" as="geometry">
            <mxPoint x="640" y="232" as="targetPoint" />
            <Array as="points">
              <mxPoint x="889" y="232" />
            </Array>
          </mxGeometry>
        </mxCell>
        <mxCell id="Q-lT2aA6olfQfRU4r2ev-12" value="Capstone&lt;br&gt;OS: Linux&lt;br&gt;192.168.1.105&lt;br&gt;(victim machine)" style="aspect=fixed;html=1;points=[];align=center;image;fontSize=12;image=img/lib/azure2/compute/Virtual_Machine.svg;" vertex="1" parent="1">
          <mxGeometry x="830" y="420" width="118.59" height="110" as="geometry" />
        </mxCell>
        <mxCell id="Q-lT2aA6olfQfRU4r2ev-23" style="edgeStyle=orthogonalEdgeStyle;rounded=0;orthogonalLoop=1;jettySize=auto;html=1;strokeWidth=2;" edge="1" parent="1" source="Q-lT2aA6olfQfRU4r2ev-7" target="Q-lT2aA6olfQfRU4r2ev-11">
          <mxGeometry relative="1" as="geometry" />
        </mxCell>
        <mxCell id="Q-lT2aA6olfQfRU4r2ev-7" value="" style="pointerEvents=1;shadow=0;dashed=0;html=1;strokeColor=none;fillColor=#4495D1;labelPosition=center;verticalLabelPosition=bottom;verticalAlign=top;align=center;outlineConnect=0;shape=mxgraph.veeam.hyper_v_host;" vertex="1" parent="1">
          <mxGeometry x="550" y="180" width="108" height="104" as="geometry" />
        </mxCell>
        <mxCell id="Q-lT2aA6olfQfRU4r2ev-24" value="Hypervisor Gateway&lt;br&gt;OS: Windows&lt;br&gt;192.168.1.1" style="text;html=1;align=center;verticalAlign=middle;resizable=0;points=[];autosize=1;strokeColor=none;" vertex="1" parent="1">
          <mxGeometry x="544" y="130" width="120" height="50" as="geometry" />
        </mxCell>
        <mxCell id="Q-lT2aA6olfQfRU4r2ev-29" style="edgeStyle=orthogonalEdgeStyle;rounded=0;orthogonalLoop=1;jettySize=auto;html=1;exitX=0.98;exitY=0.51;exitDx=0;exitDy=0;exitPerimeter=0;strokeWidth=2;" edge="1" parent="1" source="Q-lT2aA6olfQfRU4r2ev-26">
          <mxGeometry relative="1" as="geometry">
            <mxPoint x="550" y="66" as="targetPoint" />
          </mxGeometry>
        </mxCell>
        <mxCell id="Q-lT2aA6olfQfRU4r2ev-26" value="" style="points=[[0.35,0,0],[0.98,0.51,0],[1,0.71,0],[0.67,1,0],[0,0.795,0],[0,0.65,0]];verticalLabelPosition=bottom;html=1;verticalAlign=top;aspect=fixed;align=center;pointerEvents=1;shape=mxgraph.cisco19.user;fillColor=#005073;strokeColor=none;dashed=1;" vertex="1" parent="1">
          <mxGeometry x="20" y="20" width="90" height="90" as="geometry" />
        </mxCell>
        <mxCell id="Q-lT2aA6olfQfRU4r2ev-30" value="" style="shape=image;html=1;verticalAlign=top;verticalLabelPosition=bottom;labelBackgroundColor=#ffffff;imageAspect=0;aspect=fixed;image=https://cdn4.iconfinder.com/data/icons/logos-brands-5/24/kibana-128.png;dashed=1;strokeWidth=2;" vertex="1" parent="1">
          <mxGeometry x="630" y="447" width="28" height="28" as="geometry" />
        </mxCell>
        <mxCell id="Q-lT2aA6olfQfRU4r2ev-31" value="" style="verticalLabelPosition=bottom;html=1;verticalAlign=top;align=center;strokeColor=none;fillColor=#00BEF2;shape=mxgraph.azure.azure_instance;dashed=1;" vertex="1" parent="1">
          <mxGeometry x="170" y="150" width="50" height="40" as="geometry" />
        </mxCell>
      </root>
    </mxGraphModel>
  </diagram>
</mxfile>
